<svg id="Layer_1" xmlns="http://www.w3.org/2000/svg" viewBox="0 0 77.8 68"><style>.st0{fill:#3c2415}.st1{fill:#895d25}</style><path class="st0" d="M46.1 38.9s1.3-1 1.3-1.8c0-.7-1.8-2.8-2.4-2.2 0 0-1 2.4-1.6 3.3-.6.9-.9 1.3-1.8 1.9-.9.6 0-.3-.9.6-.9.9-1.8 1.5-1.8 1.5s1.8 0 2.7-.6c.9-.6.6-.6 2.5-1.6l2-1.1zm-11-6.8l-1.3 1.3-.9.9s-2.4-.4-3-.1c-.6.3-.3.9-.3.9l.3 1.8s2.2.4 2.8.3c.6-.1-.1.7-.1.7l-1.2.2-.7.1s.9 1.2 1.5 1.2c0 0 .7 2.1 2.1 2.1 1.3 0 3 .4 3 .4s.6.3 1.8-.6c1.2-.9 1.9-1.2 3.3-2.8 1.3-1.6 2.4-4 1.9-5.1-.4-1-1.5-3.1-1.5-3.1s-.9-1.6-1.3-1.6-.6.6-.6.6 0 .7-.1 1.3c-.2.6-.6-1-.6-1l-1.6-1-.1 1-.3.7.3 1.2s-1.2.2-1.6.2c-.8 0-1.8.4-1.8.4zm4.5 11.7s2.3-.1 4.2-3.1c0 0-3.1 2.1-3.9 2.1l-.3 1zm-5.7-1.6c-.3.4-.6.7-.2.8.4.1.4.6.4.6s-.4 1-.1 1.3c.2.3 1.3-.2 1.3-.2s-.8-1.5.1-2.3c-.1 0-1.2-.5-1.5-.2zm5.1.7c-.4-.1-1.6-.5-2.3-.2 0 0-.2-.2-.2.7 0 .9-.1 1.4-.1 1.4l1 1s.7 0 1-.3c.4-.3.1-.9.1-.9s.4-.4.5-.7c.2-.4.4-.9 0-1zm-3.6.9c.2.8.3 1.1.5 1 .2-.2-.1-1.9.1-2.1.1 0-.8.3-.6 1.1zM20.3 22.2c.1-3.6-2.1-4.8-5.9-5.5 3-1.4 5.2-3.7 5.2-6.4.1-4.2-3.2-6.3-6.4-6.3-3.5 0-7.1 0-10.6.1v1.1H3c2.2-.1 2.7.3 2.7 1.9l-.1 23.7c0 2-.3 2.5-2.6 3.7-.1.1-.3.1-.4.2v1.1c3.6-2 7.2-3.6 11-5 3.7-1.4 6.6-5.1 6.7-8.6zM10.9 4.9h1.6c2.2 0 3.2 1.9 3.2 5.3 0 4.8-1.4 6.3-4.6 6.9-.5.1-1.1.2-1.6.3l.1-11.1c0-.8-.2-1.3 1.3-1.4zM9.3 29.6l.1-11.3c.6-.1 1.1-.2 1.7-.4 1.5-.3 2.3-.5 3.4.3.9.7 1.4 2.1 1.4 4.6.1 3.8-.6 6.3-4.2 7.7-2.3.9-2.4.6-2.4-.9zM67 4v1c.2 0 .4 0 .5.1C70.8 5.3 71 6.2 71 9c0 5.4.1 10.8.1 16.2-3.8-8.3-7.8-15.2-11.8-21.3h-6v.8c1.5 0 2.1.3 2.8 1.1.1 6.7.2 13.4.4 20.2-.3.7-.8 1.1-1.6.9-1.3-.3-1.8-1-2.3-5-.4-3.8-1.1-5.2-4.6-6.5 4.1-.5 6.4-2.4 6.3-5.1-.1-3.9-4.4-6.5-7.8-6.4H36v.8h.4c2.2 0 2.7.3 2.7 1.5v17.7c0 1-.1 1.4-.8 1.6-1.1-.2-1.4-.7-1.8-2-2.5-6.6-4.9-13.2-7.2-20.1h-.6c-2.5 6.6-5 13.6-7.4 21.1-1 3-1.3 3.2-3.4 4v.9c2.6-.8 5.2-1.4 7.8-1.8v-.8c-.3 0-.6.1-.9.1-3.1.5-2.9-.2-2-2.9.5-1.6 1-3.1 1.5-4.6 2.1-.3 4.2-.5 6.3-.6.6 1.6 1.1 3.2 1.7 4.8.6 1.8 1.2 2.1-2.5 2.7-.3 0-.5.1-.8.1v.8c2.6-.3 5.1-.5 7.7-.6h2.7c2.3 0 4.6.1 6.9.3v-.8c-.3 0-.5 0-.8-.1-1.4-.1-2.2-.4-2.2-1.7 0-2.9 0-5.7-.1-8.6.9 0 1.9.1 2.8.1 2 .1 2.4.4 2.6 2.8.1 2 .3 4.1.4 6.1 0 .5.2 1 .4 1.4 1.1 1.2 2.8 1.5 2.8 1.5 3.4.6 6.7 1.4 10 2.5v-.8c-3.7-1.4-3.7-1.8-3.8-4.4l-.3-16.3c4.7 7.3 9.4 15.7 13.8 26.3.2.1.5.2.7.3-.1-8.6-.1-17.1-.2-25.7 0-3.2 0-4.1 3-4.2V4.1c-3 0-5.7-.1-8.4-.1zM24.6 18.3c1-2.9 1.9-5.7 2.9-8.5.9 2.7 1.8 5.3 2.7 7.9-1.9.2-3.8.4-5.6.6zM44.8 15c-.6 0-1.1 0-1.7-.1 0-3.1 0-6.2-.1-9.2 0-.7.2-1.1 1.7-1h1.1c1.8 0 4.2 1.8 4.3 5.4.1 4.4-2 5-5.3 4.9zM60 51.9c-.2 1.3-.5 2-1.2 2.1-.2 0-.4 0-.5-.4 0-.2 0-.7.1-1.2.1-.8.3-1.5.4-2.3.1-.4.1-.9.1-1.1-.1-.9-.9-1.6-1.7-1.4-.7.1-1.3.8-1.6 1.6h-.1c-.1-1.1-.9-1.3-1.4-1.2-.8 0-1.1 1-1.5 2.3.1 0 .2 0 .3.1.3-1.3.6-2.1 1.2-2.1.2 0 .3.1.4.5 0 .2 0 .9-.1 1.2-.3 1.6-.6 3.3-.9 4.9.4 0 .9-.1 1.3-.1.3-1.6.5-3.1.8-4.7.3-1 .9-2 1.5-2 .3 0 .6 0 .7.6 0 .3 0 .8-.1 1.1-.1.8-.3 1.6-.4 2.4-.1.5-.2.9-.1 1.3.1.9 1.1 1 1.6.9.9-.1 1.3-1.1 1.6-2.5H60zm4.5-.3c-.3.8-.8 1.5-1.5 1.7-.3.1-.6 0-.7-.6 0-.3 0-.7.1-1.1.1-.8.3-1.6.4-2.4.1-.5.1-.9.1-1.3-.2-.8-1-1-1.5-.9-.9.2-1.2 1.2-1.4 2.5.1 0 .2 0 .3.1.2-1.3.5-2.1 1.1-2.2.2 0 .3 0 .4.4 0 .2 0 .7-.1 1.3-.1.8-.2 1.5-.4 2.3-.3.3-.3.8-.3 1 .1.9.9 1.5 1.8 1.4.7-.1 1.3-.9 1.6-1.6h.1c-.3 3.2-1.3 4.7-2.6 4.9-.2 0-1 .1-1.1-.3 0-.3.3-.2.5-.4.2-.1.3-.3.2-.8 0-.2-.3-.6-.8-.5-.5.1-.9.5-.8 1.2.1.4.5 1.4 2.1 1.1 1.9-.3 3.5-2.1 3.7-5.9.1-1.8.2-3.5.3-5.3-.4.1-.8.2-1.2.2 0 1.8-.2 3.5-.3 5.2zm-34.9-6h-.5c-.2.3-.5.6-.7.9-.6-.7-1.1-1.1-2.2-1.1-2.9-.3-6.4 2.8-7 7.3-.4 2.7.9 4.8 3.6 5.1 2.5.3 4-1.3 5-2.9-.1-.1-.3-.2-.4-.3-1.2 1.4-2.4 2.5-4 2.4-2-.2-2.7-2.1-2.4-4.5.5-4 2.9-6.9 4.8-6.7 1.9.2 2.3 1.9 2.3 4.2h.4c.3-1.5.7-3 1.1-4.4zm9.3 8c-.1 0-.2-.1-.3-.1-.4 1.3-.8 1.9-1.5 1.9-.2 0-.4 0-.4-.5 0-.2.1-.7.3-1.2.2-.7.5-1.5.7-2.2.1-.4.2-.9.2-1.1 0-.9-.7-1.7-1.5-1.7-.7 0-1.3.7-1.8 1.3h-.1c0-.7-.5-1.4-1.4-1.4-.7 0-1.3.6-1.8 1.3h-.1c.1-1.1-.6-1.4-1.2-1.4-.9-.1-1.4.9-2 2.1.1 0 .2.1.3.1.5-1.2.9-1.9 1.5-1.9.2 0 .3.1.3.5 0 .2-.2.8-.3 1.2-.6 1.6-1.1 3.1-1.7 4.7.4 0 .9.1 1.3.1.5-1.5 1.1-3 1.6-4.5.4-.8 1.1-1.8 1.8-1.8.3 0 .6.1.6.7 0 .3-.1.7-.2.9-.5 1.6-1 3.2-1.6 4.7.4 0 .9 0 1.3.1.5-1.6 1.1-3.3 1.6-5 .4-.7.9-1.4 1.6-1.4.3 0 .6.1.6.7 0 .3-.1.8-.3 1.1-.3.8-.5 1.6-.8 2.3-.2.5-.3.9-.3 1.2 0 .9.9 1.2 1.5 1.2 1.2.4 1.7-.5 2.1-1.9zm12.5 1.3c-.2 0-.4 0-.4-.5 0-.2 0-.7.1-1.1.3-1.7.7-3.3 1-5-.4 0-.8.1-1.3.1-.1.3-.1.7-.2 1-.2-.7-.7-1-1.2-1-2.3.2-3.3 3.4-3.2 5 .1 1.9 1.1 2.3 1.9 2.2.8-.1 1.3-.7 1.8-1.5.1.9.6 1.3 1.4 1.2.9-.1 1.4-1.1 1.7-2.4-.1 0-.2 0-.3-.1-.3 1.3-.7 2-1.3 2.1zm-1.6-1.4c-.3.8-.8 1.5-1.5 1.6-.3 0-.7-.1-.8-1.5-.1-1.8.7-4.8 1.9-4.9.6 0 .9.3 1.1 1.2-.2 1.2-.4 2.4-.7 3.6zM26 48.3c-2.3-.2-3.9 2.5-4.1 4.1-.2 1.8.8 2.7 1.7 2.8 2.5.3 4-2.5 4.1-4.1.1-1.9-.8-2.7-1.7-2.8zm.4 2.3c-.1 1.8-1.1 4.4-2.6 4.3-.5 0-.8-.7-.6-2.1.2-1.7 1.3-4.4 2.6-4.2.4 0 .7.7.6 2zm17-1.9c-.7 0-1.3.7-1.8 1.4 0-1-.6-1.4-1.2-1.3-.9 0-1.4 1-1.8 2.3.1 0 .2.1.3.1.4-1.3.8-2 1.4-2 .2 0 .3.1.3.6 0 .2-.1.8-.2 1.1-.5 2.1-1.1 4.3-1.7 6.4-.1.4-.3.9-.5 1.2-.2.2-.3.3-1 .3 0 .1 0 .2-.1.3h4c0-.1 0-.2.1-.3h-.8c-.3 0-.6-.1-.6-.5 0-.2.1-.5.2-1l.6-2.4c.2.6.7.9 1.3.9 2.4-.1 3.6-3.3 3.5-4.9-.1-1.7-1.1-2.2-2-2.2zm-1.5 6.8c-.6 0-1-.3-1.2-1.1.3-1.2.6-2.5.9-3.7.4-.7.9-1.4 1.5-1.4.3 0 .8.1.9 1.5.1 1.7-.8 4.7-2.1 4.7zm-25.3-5.7c-.9-.1-1.7 1.1-2.4 2.2-.4-1.4-.6-2-.8-2.7 1.1-.4 2.2-.9 2.5-2.3.1-.9-.4-1.5-1.1-1.7-1.2-.2-2.4.8-2.6 2.2-.1.5-.1 1 .1 1.8-2.1.7-2.9 1.5-3.2 2.7-.3 1.3.5 2.1 1.5 2.3 1.2.2 1.9-.3 2.7-1 .1.6.3 1.5.2 2.1-.3 1.7-1.4 1.9-2.5 1.7v.4c1.7.3 3.3-.8 3.6-2.8.1-.7-.1-1.5-.3-2.3.9-1.2 1.3-1.7 1.6-1.7.5.1.1.6.9.8.4.1.6-.3.6-.6.1-.5-.1-1-.8-1.1zm-5.2 4c-.8-.1-1.1-.9-1-1.9.2-.8.5-1.7 1.9-2.2.2 1.1.6 2.2 1 3.3-.8.6-1.2.9-1.9.8zm1.9-6.5c.1-.8.7-1.7 1.4-1.5.5.1.7.7.6 1.2-.2 1-.9 1.6-1.9 2-.2-.9-.2-1.3-.1-1.7z"/><path class="st1" d="M2.7 0h73.6v.7H2.7zM71.9 49.3l-.9-1.6-.2 1.8-1.8.4 1.7.7-.2 1.8 1.2-1.4 1.7.7-.9-1.6 1.2-1.4-1.8.6zm-65 .2l-.2-1.8-.9 1.6-1.8-.4 1.2 1.4-.9 1.6 1.7-.8 1.2 1.4-.2-1.8 1.7-.7-1.8-.5zm38 12.2c0 .7.1 1.3.1 1.9v.2h.6v-.1c-.1 0-.1 0-.1-.1 0-.5 0-.9-.1-1.4l.9 1.5c.3-.5.5-1.1.8-1.6 0 .5 0 .9.1 1.4 0 0 0 .1-.1.1v.1h.6v-.1-.1c0-.6-.1-1.2-.1-1.9v-.1-.1h-.7v.2s0 .1-.1.1c-.2.4-.4.8-.6 1.1-.2-.4-.4-.7-.7-1.1 0 0 0-.1-.1-.1v-.1-.1h-.7c.1.2.1.2.2.3-.1 0 0 0 0 0zm8.2 1.6c.2 0 .5 0 .7-.1v-.1s-.1 0-.1-.1c-.1 0-.1-.1-.1-.1l-.9-.9c.3-.2.5-.5.8-.7.1-.1.1-.1.2-.1v-.1c-.3 0-.5 0-.8.1v.1h.1l-.1.1-.2.2-.3.3-.3.3c0-.3 0-.5-.1-.8 0 0 0-.1.1-.1v-.1h-.6v.1c.1 0 .1 0 .1.1 0 .6.1 1.2.1 1.8 0 0 0 .1-.1.1v.1h.7v-.1c-.1 0-.1 0-.1-.1v-.5c.1-.1.2-.2.4-.3.2.2.4.5.7.7l.1.1v.1c-.2-.2-.3-.1-.3 0 0-.1 0-.1 0 0zM50 61.4h-.5c-.2 0-.4 0-.5.1-.2.1-.3.1-.4.2-.1.1-.2.2-.3.4-.1.1-.1.3-.1.5s.1.3.1.5l.3.3c.1.1.3.1.4.2h.5c.2 0 .4 0 .5-.1.2-.1.3-.1.4-.2.1-.1.2-.2.3-.4.1-.1.1-.3.1-.5s-.1-.3-.1-.5l-.3-.3c-.1-.1-.3-.2-.4-.2zm.3 1.3c0 .1-.1.2-.2.2-.1.1-.2.1-.3.2-.1 0-.2.1-.3.1h-.3c-.1 0-.2-.1-.3-.1-.1-.1-.2-.1-.2-.2-.1-.1-.1-.2-.1-.3 0-.1 0-.2.1-.3 0-.1.1-.2.2-.2.1-.1.2-.1.3-.2.1 0 .2-.1.3-.1h.3c.1 0 .2.1.3.1.1.1.2.1.2.2.1.1.1.2.1.3 0 .1 0 .2-.1.3zM6 59.6c.3.1.6.1.8 0 .2-.1.3-.3.4-.6.1-.3 0-.5-.2-.6-.2-.1-.4-.3-.7-.3-.6-.1-1.1-.2-1.7-.3v.1c.1 0 .2.1.2.1-.2.7-.3 1.5-.5 2.2 0 .1-.1.1-.2 0v.1c.3.1.6.1.9.2v-.1c-.1 0-.2-.1-.1-.1 0-.3.1-.6.1-.9.3.1.7.1 1 .2zm-.8-1.3c.3.1.7.1 1 .2.1 0 .2.1.3.1.1.1.1.1.1.3 0 .1-.1.2-.2.2h-.3c-.3-.1-.7-.1-1-.2 0-.2.1-.4.1-.6zm55.6 4c.1.1.1.1 0 0 .3.1.5 0 .8 0v-.1h-.1v-.1c-.1-.7-.2-1.5-.3-2.2v-.1h.1v-.1c-.3 0-.5.1-.8.1v.1c.1 0 .1 0 .1.1l.1.8c-.5.1-1.1.1-1.6.2 0-.3-.1-.6-.1-.8v-.1h.1V60c-.2 0-.5.1-.7.1v.1c.1 0 .1 0 .1.1l.3 2.2c0 .1 0 .1-.1.1v.1c.3 0 .5-.1.8-.1v-.1h-.1v-.1c0-.3-.1-.6-.1-.9.5-.1 1.1-.1 1.6-.2 0 .3.1.6.1.9 0 .1-.1.1-.2.1zm-6.5.8c.6 0 1.2 0 1.8-.1h.2c0-.2 0-.3-.1-.5h-.1v.1H56c-.4 0-.9.1-1.3.1 0-.2 0-.4-.1-.6.2 0 .5 0 .7-.1h.2s.1 0 0 .1h.1c0-.2 0-.3-.1-.5h-.1v.1h-.1c-.3 0-.5 0-.8.1v-.5c.4 0 .8-.1 1.2-.1.1 0 .2 0 .2.1h.1c0-.2 0-.4-.1-.5h-.1c0 .1 0 .1-.1.1-.6.1-1.2.1-1.8.2v.1h.1v.1c.3.5.3 1.1.3 1.8.1-.1.1-.1 0 0zm15.8-2.5c-.1 0-.1.1-.2.1h-.2-.5c-.1 0-.2 0-.2-.1-.1 0-.1-.1-.1-.1h-.1c0 .2-.1.4-.1.6h1.1c.1 0 .2-.1.4-.1.1 0 .2-.1.3-.2.1-.1.2-.2.2-.3.1-.1.1-.2 0-.4 0-.1-.1-.2-.2-.3-.1-.1-.2-.1-.3-.1h-1.1c-.1 0-.1-.1-.1-.1v-.1l.1-.1s.1-.1.2-.1h.7c.1 0 .3 0 .3.1h.1v.1h.1c.1-.2.1-.3.2-.5h-.1-.1-1c-.3.1-.5.2-.7.3-.2.2-.2.3-.2.5 0 .1.1.2.2.3.1.1.2.1.3.1h1.1c.1 0 .1.1.2.1v.2c-.2 0-.2.1-.3.1zm1.5 0s0 .1 0 0c.6 0 1.2-.2 1.8-.3h.2c0-.2-.1-.3-.1-.5h-.1v.1h-.1c-.4.1-.8.2-1.3.3 0-.2-.1-.4-.1-.6.2 0 .5-.1.7-.1h.2s.1 0 .1.1h.1c0-.2-.1-.3-.1-.5h-.1v.1h-.1c-.3.1-.5.1-.8.2 0-.2-.1-.3-.1-.5.4-.1.8-.2 1.2-.2.1 0 .2 0 .2.1h.1c0-.2-.1-.4-.1-.5h-.1c0 .1 0 .1-.1.1-.6.1-1.2.2-1.7.3v.1h.1v.1c.1.4.2 1 .2 1.7.1-.1.1 0 0 0 .1 0 0 0 0 0zm-7.3-.6c-.1-.1-.3-.1-.4-.1h-.5c-.2 0-.3.1-.5.1-.2.1-.3.2-.4.3-.1.1-.2.2-.2.4-.1.1-.1.3 0 .5 0 .2.1.3.2.5l.3.3c.1.1.3.1.4.1h.5c.2 0 .4-.1.5-.1.2-.1.3-.2.4-.3.1-.1.2-.2.2-.4 0-.1.1-.3 0-.5 0-.2-.1-.3-.2-.5l-.3-.3zm0 1.2c0 .1-.1.2-.2.3-.1.1-.2.1-.3.2-.1 0-.2.1-.3.1h-.3c-.1 0-.2-.1-.3-.1-.1-.1-.2-.1-.2-.2-.1-.1-.1-.2-.1-.3v-.3c0-.1.1-.2.2-.3.1-.1.2-.1.2-.2.1 0 .2-.1.3-.1h.3c.1 0 .2.1.3.1.1.1.2.1.2.2.1.1.1.2.1.3.1.1.1.2.1.3zm1.6-1.6s0-.1 0 0h-.7v.1h.1v.1l.2 1.2c0 .1.1.2.1.3.1.1.1.2.2.2.1.1.2.1.4.1h.5c.2 0 .4-.1.5-.1.1-.1.3-.1.3-.2.1-.1.1-.2.2-.3v-.3c-.1-.4-.1-.8-.2-1.2 0 0 0-.1.1-.1v-.1c-.2 0-.5.1-.7.1v.1c.1 0 .1 0 .1.1.1.4.1.7.2 1.1 0 .2 0 .3-.1.4-.1.1-.3.2-.5.2s-.4 0-.6-.1c.1-.1 0-.2 0-.4-.1-.4-.1-.7-.1-1.2-.1 0-.1 0 0 0zm-48.3.8c-.2-.1-.5-.2-.7-.2v.1h.1v.1c-.1.6-.2 1.2-.2 1.8v.1h-.1v.1c.3 0 .5.1.8.1v-.1c-.1 0-.1 0-.1-.1.1-.6.2-1.2.2-1.8-.2-.1-.1-.1 0-.1zm-10 .1c0 .1.1.2.2.3.1.1.2.2.3.2.1.1.3.1.5.2h.5c.2 0 .3 0 .4-.1.1-.1.2-.1.3-.2.1-.1.1-.2.1-.3.1-.4.1-.8.2-1.2 0 0 0-.1.1-.1v-.1c-.2 0-.5-.1-.7-.1v.1c.1 0 .1 0 .1.1-.1.4-.1.7-.2 1.1 0 .2-.1.3-.2.3-.1.1-.3.1-.6 0-.2 0-.4-.1-.5-.2-.1-.1-.1-.2-.1-.4.1-.4.1-.7.2-1.1 0 0 0-.1.1-.1v-.1c-.2 0-.5-.1-.7-.1v.1h.1v.1c-.1.4-.2.8-.2 1.2.1.2.1.3.1.4zm18 .3c.1 0 .1 0 0 0 .1 0 .1-.1.1-.1-.3 0-.5 0-.8-.1v.1c.1 0 .1 0 .1.1 0 .3 0 .6-.1.8-.5 0-1.1-.1-1.6-.1 0-.3.1-.6.1-.8v-.1h.1v-.1c-.2 0-.5 0-.7-.1v.1c.1 0 .1 0 .1.1-.1.7-.1 1.5-.2 2.2 0 .1 0 .1-.1.1v.1c.3 0 .5 0 .8.1V63h-.1v-.1c0-.3.1-.6.1-.9.5 0 1.1.1 1.6.1 0 .3-.1.6-.1.9 0 .1 0 .1-.1.1v.1c.3 0 .5 0 .8.1v-.1h-.1v-.1c0-.7 0-1.4.1-2.3 0 .1 0 .1 0 0zm2.4 2.6c0 .1 0 .1 0 0 .2.1.5.1.7.1v-.1h-.1l-.1-.1c-.2-.6-.5-1.1-.7-1.7v-.1-.1-.1c-.2 0-.5 0-.7-.1v.2s0 .1-.1.1l-.9 1.5s0 .1-.1.1h-.1v.1h.7v-.1h-.1V63v-.1-.1c.1-.1.1-.2.2-.3.4 0 .7 0 1.1.1 0 .1.1.2.1.3v.1c.2.3.2.3.1.4.1 0 .1 0 0 0zm-1-.9c.1-.3.3-.5.4-.8l.3.9c-.2 0-.4-.1-.7-.1zm-13.3-.6s0 .1 0 0c.6.2 1.3.3 1.9.4h.2c0-.2 0-.3.1-.5h-.1s0 .1-.1.1h-.1c-.4-.1-.9-.1-1.3-.2.1-.5.2-1.1.2-1.6 0 0 0-.1.1-.1v-.1c-.2 0-.5-.1-.7-.1v.1c.1 0 .1 0 .1.1l-.3 1.8c.2.1.1.1 0 .1zm6.4-.6c.2-.1.3-.2.4-.4h-.1-.1c-.1 0-.1-.1-.2-.1s-.2-.1-.3-.1c-.1 0-.2-.1-.3-.1H19c-.2 0-.3.1-.4.2l-.3.3c-.1.1-.1.3-.2.5 0 .2 0 .3.1.5.1.1.1.3.2.4.1.1.2.2.4.3.1.1.3.1.4.1h.4c.1 0 .2 0 .3-.1.1 0 .2-.1.2-.1H20.4l-.3-.6H20s0 .1-.1.1-.1.1-.2.1-.2 0-.3.1h-.3c-.1 0-.2 0-.3-.1-.1 0-.2-.1-.2-.2-.1-.1-.1-.2-.1-.3v-.3c0-.1 0-.2.1-.3.1-.1.1-.2.2-.2.1-.1.2-.1.3-.1h.3c.1 0 .2 0 .3.1.1 0 .1.1.2.1s.1.1.1.1c.1 0 .1 0 .1.1 0-.1 0-.1 0 0 0-.1 0 0 0 0zm23.1 2c-.1 0-.2 0-.3.1h-.5c-.1 0-.2 0-.3-.1-.1 0-.2-.1-.2-.1-.1 0-.1-.1-.1-.1V63h-.1l-.3.6H41.7c.1 0 .1.1.2.1s.2.1.3.1h.9c.2 0 .3-.1.4-.1l.3-.3c.1-.1.1-.3.1-.4 0-.1 0-.3-.1-.4-.1-.1-.1-.2-.2-.2-.1-.1-.2-.1-.3-.1h-1.1c-.1 0-.2 0-.2-.1v-.3c0-.1 0-.1.1-.1 0 0 .1-.1.2-.1s.1 0 .2-.1h.5c.1 0 .2 0 .3.1.1 0 .2.1.2.1.1 0 .1.1.1.1v.1h.1l.3-.6h-.1-.1-.2c-.1 0-.1-.1-.2-.1s-.2-.1-.3-.1h-.5c-.2 0-.4 0-.5.1-.2.1-.3.1-.4.2-.1.1-.2.2-.2.3 0 .1-.1.2-.1.3 0 .2 0 .3.1.4.1.1.1.2.2.2.1.1.2.1.3.1h1.1c.1 0 .2 0 .2.1.1 0 .1.1.1.2s0 .1-.1.2h-.1zm-6.7.4c.1.1.2.1.3.1h.7c.1 0 .2 0 .2-.1.1 0 .1-.1.2-.1s.1-.1.2-.2l.1.1s.1.1.2.1.1.1.2.1h.3v-.6h.1v.1h-.1c-.1 0-.1 0-.2-.1-.1 0-.1-.1-.2-.2 0 0 0-.1.1-.1 0 0 0-.1.1-.1l.1-.1h.2v.1h.1v-.8s-.1 0-.1.1c-.1 0-.1.1-.2.1l-.2.2c-.1.1-.1.2-.2.2 0 0 0-.1-.1-.1 0 0 0-.1-.1-.1 0 0 0-.1-.1-.1l-.1-.1c.1 0 .1-.1.2-.2s.1-.2.1-.3c0-.1 0-.2-.1-.3l-.2-.2c-.1-.1-.2-.1-.3-.1h-.6c-.1 0-.2.1-.3.1-.1.1-.2.1-.2.2-.1.1-.1.2-.1.3 0 .1 0 .2.1.3.1.1.2.1.3.2-.1 0-.2.1-.3.1-.1 0-.2.1-.2.1-.1.1-.1.1-.1.2s-.1.2-.1.3c0 .1 0 .3.1.4 0 .3.1.4.2.5zm.6-2c.1-.1.2-.1.3-.1.1 0 .2 0 .3.1.1.1.1.1.1.3 0 .1 0 .2-.1.3-.1.1-.2.1-.3.1-.1 0-.2 0-.3-.1-.1-.2-.1-.3-.1-.4 0-.1 0-.2.1-.2zm-.3 1.1c0-.1.1-.1.1-.1.1 0 .1-.1.2-.1h.2c.1 0 .2 0 .2.1l.1.1c0 .1.1.1.1.2s.1.1.1.2c0 0 0 .1-.1.1l-.1.1c-.1 0-.1.1-.2.1H37c-.1 0-.1 0-.2-.1-.1 0-.1-.1-.1-.1 0-.1-.1-.1-.1-.2.1-.2.1-.2.2-.3zm-23.9-2.2l.1-.1.1-.1s0-.1.1-.2V60c0-.1-.1-.1-.1-.2l-.2-.2c-.1 0-.2-.1-.3-.1-.5-.1-1-.2-1.5-.2v.1h.1v.1l-.3 1.8v.1h-.1v.1c.5.1 1 .2 1.5.2h.4c.1 0 .2 0 .3-.1.1 0 .1-.1.2-.2 0-.1.1-.1.1-.2V61c0-.1 0-.1-.1-.2 0-.1-.1-.1-.1-.1l-.1-.1c-.2.1-.1.1-.1 0zm-.4.8h-.3c-.3 0-.6-.1-.9-.1 0-.2.1-.4.1-.6.3 0 .5.1.8.1.2 0 .3.1.4.1.1.1.1.1.1.2-.1.2-.1.2-.2.3zm.1-1h-.2c-.3 0-.6-.1-.9-.1l.1-.5c.3 0 .6.1.9.1h.1s.1 0 .1.1c0 0 0 .1.1.1v.1c-.1.2-.2.2-.2.2zM34 63.8c.1 0 .1 0 0 0h.1v-.5H34v.1h-1.5c0-.5 0-1.1.1-1.6 0 0 0-.1.1-.1v-.1H32v.1c.1 0 .1 0 .1.1 0 .6 0 1.2-.1 1.8 0 0 0 .1-.1.1v.1c.7-.1 1.4 0 2.1 0zm-4.1-2.2s0-.1.1-.1v-.1h-.7v.1c.1 0 .1 0 .1.1 0 .6-.1 1.2-.1 1.8 0 0 0 .1-.1.1v.1c.7 0 1.3.1 2 .1h.2v-.5h-.1v.1h-.1c-.5 0-.9 0-1.4-.1 0-.5.1-1.1.1-1.6zm.7-21.3c-.4-.7-.8-1.4-1-2-2.2.7-11 3.2-26.1 2 0 0 15 .7 25.8-2.6-.5-1.3-.7-2.2-.7-2.2C19.5 37.6 10 38.3.5 37.3c.2.8.3 1.7.5 2.6-.3.8-.7 1.6-1 2.4 10.4 1.1 20.7.4 30.6-2zm18-1.7c-.4.6-1.1 1.2-2.4 1.7 9.9 2.4 21.2 3.1 31.5 2-.4-.8-.7-1.6-1-2.4l.6-2.7c-9.5 1-19.9.3-29-1.8 0 0 1.1 1.1.7 2.5 10.8 3.1 25.8 2.3 25.8 2.3-13.5 1.2-22.9-.7-26.2-1.6zM2.1 63.5l-.1.7C14.2 66.7 26.6 68 38.9 68c12.3 0 24.6-1.3 36.9-3.8l-.1-.7c-24.5 5-49.2 5-73.6 0z"/></svg>